<svg
   width="800px"
   height="800px"
   viewBox="0 0 24 24"
   fill="none"
   version="1.1"
   id="svg1"
>
  <defs
     id="defs1" />
  <sodipodi:namedview
     id="namedview1"
     pagecolor="#ffffff"
     bordercolor="#000000"
     borderopacity="0.25"
     inkscape:showpageshadow="2"
     inkscape:pageopacity="0.0"
     inkscape:pagecheckerboard="0"
     inkscape:deskcolor="#d1d1d1"
     inkscape:zoom="1.22875"
     inkscape:cx="400.40692"
     inkscape:cy="399.59308"
     inkscape:window-width="2560"
     inkscape:window-height="1371"
     inkscape:window-x="0"
     inkscape:window-y="0"
     inkscape:window-maximized="1"
     inkscape:current-layer="svg1" />
  <path
     fill-rule="evenodd"
     clip-rule="evenodd"
     d="M17.0392 15.6244C18.2714 14.084 19.0082 12.1301 19.0082 10.0041C19.0082 5.03127 14.9769 1 10.0041 1C5.03127 1 1 5.03127 1 10.0041C1 14.9769 5.03127 19.0082 10.0041 19.0082C12.1301 19.0082 14.084 18.2714 15.6244 17.0392L21.2921 22.707C21.6828 23.0977 22.3163 23.0977 22.707 22.707C23.0977 22.3163 23.0977 21.6828 22.707 21.2921L17.0392 15.6244ZM10.0041 17.0173C6.1308 17.0173 2.99087 13.8774 2.99087 10.0041C2.99087 6.1308 6.1308 2.99087 10.0041 2.99087C13.8774 2.99087 17.0173 6.1308 17.0173 10.0041C17.0173 13.8774 13.8774 17.0173 10.0041 17.0173Z"
     fill="#0F0F0F"
     id="path1"
     style="fill:#ffffff" />
</svg>
