<?xml version="1.0" encoding="UTF-8"?>
<svg id="svg8" width="552.49mm" height="485.49mm" version="1.1" viewBox="0 0 552.49 485.49" xmlns="http://www.w3.org/2000/svg" xmlns:cc="http://creativecommons.org/ns#" xmlns:dc="http://purl.org/dc/elements/1.1/" xmlns:rdf="http://www.w3.org/1999/02/22-rdf-syntax-ns#">
	<metadata id="metadata5">
		<rdf:RDF>
			<cc:Work rdf:about="">
				<dc:format>image/svg+xml</dc:format>
				<dc:type rdf:resource="http://purl.org/dc/dcmitype/StillImage" />
			</cc:Work>
		</rdf:RDF>
	</metadata>
	<g id="layer1" transform="translate(230.11 224.55)">
		<path id="path897" transform="matrix(.26458 0 0 .26458 -220.95 -215.91)" d="m1295.5 1.1133a111.59 111.59 0 0 0-109.88 112.71 111.59 111.59 0 0 0 0.1309 2.7539c-196.09 60.69-474.3 255.26-547.44 655.75l-3.207 161.89 6.2774-0.50977a354.85 354.85 0 0 0-6.9844 44.07c-20.424 82.108-18.448 176.55 1.1543 269.24-317.76 85.26-629.31 270.4-635.57 521.49h2016.7c-21.212-245.52-334.26-432.45-650.73-519.62 19.278-124.9 8.3912-253.22-42.91-350.76a354.85 354.85 0 0 0-10.594-27.332l0.8125-157.78-4.75-489.39a111.59 111.59 0 0 0 100.23-110.94l-0.024-2.2715a111.59 111.59 0 0 0-113.27-109.3z" fill-opacity=".99846" stroke="#000" stroke-width="67.521" />
		<path id="path15232" d="m45.194 100.22c-101.74-0.57502-263.81 58.363-266.14 151.79h533.6c-7.8378-90.72-166.27-151.22-267.45-151.79z" fill="#f00" fill-opacity=".99846" />
		<path id="path7220" d="m126.31 16.703c43.018 70.81-3.4712 213.67-75.114 214.41-76.933 0.80125-131.64-133.42-97.981-206.48 28.139-61.071 36.203-22.911 87.882-22.911 51.678-1e-6 50.301-42.49 85.213 14.979z" fill="#fff" stroke-width=".57305" />
		<circle id="path29" cx="40.278" cy="52.061" r="93.887" fill="#fca" fill-opacity=".99846" />
		<g id="g3070">
			<ellipse id="path2410" cx="-14.926" cy="66.481" rx="20.63" ry="7.8552" fill="#ff8080" fill-opacity=".64495" />
			<ellipse id="leftEye" cx="-14.368" cy="51.316" rx="14.051" ry="13.193" />
		</g>
		<path id="rect7901" d="m-52.057-11.567 178.59-15.692-0.22638 43.962-179.21 14.564z" fill="#fff" fill-opacity=".99846" />
		<g id="g15436">
			<g id="hat" fill-opacity=".99846">
				<path id="rect8532" d="m124.95-190.78 1.5872 163.52-178.59 15.692c23.926-131.02 130.82-178.76 177-179.21z" fill="#f00" />
				<path id="path8852" d="m151.8-186.1a29.524 29.524 0 0 1-29.374 29.523 29.524 29.524 0 0 1-29.673-29.223 29.524 29.524 0 0 1 29.071-29.821 29.524 29.524 0 0 1 29.969 28.919" fill="#f9f9f9" stroke="#f9f9f9" stroke-width=".58208" />
			</g>
		</g>
		<g id="g11744" transform="translate(2.5175 8.1753)" fill="#fff" fill-opacity=".98109" stroke-width=".69697">
			<path id="rect4484" d="m-31.783 139.5c-16.907-14.682 14.084-48.748 27.348-56.324 13.264-7.576 38.024-11.493 47.061-0.17392 8.3551 10.466 0.06406 27.341-15.739 34.951-15.803 7.6106-43.363 34.84-58.67 21.546z" />
			<path id="path11740" d="m115.26 139.13c16.907-14.682-14.084-48.748-27.348-56.324-13.264-7.576-38.024-11.493-47.061-0.17392-8.3551 10.466-0.0641 27.341 15.739 34.951 15.803 7.6106 43.363 34.84 58.67 21.546z" />
		</g>
		<g id="g11912" transform="translate(109.2)">
			<ellipse id="ellipse11908" cx="-14.926" cy="66.481" rx="20.63" ry="7.8552" fill="#ff8080" fill-opacity=".64495" />
			<ellipse id="rightEye" cx="-14.368" cy="51.316" rx="14.076" ry="13.205" />
		</g>
		<rect id="rect2533" x="-220.95" y="244.37" width="533.57" height="16.494" ry="7.6028" fill="#f00" fill-opacity=".99846" />
	</g>


	<style type="text/css">
		<![CDATA[
			@keyframes squish {
				0%, 10%, 100% {
					ry: 13.205px;
				}

				5% {
					ry: 0;
				}
			} 

			@keyframes look-around {
				0%, 50%, 70%, 100% {
					transform: translate(0, 0);
				}

				55%, 65% {
					transform: translate(5px, -10px);
				}
			} 

			#rightEye, #leftEye {
				animation: squish 3.1s linear infinite, look-around 15s linear infinite
			}
		]]>
	</style>
</svg>